<svg width="216" height="15" viewBox="0 0 216 15" fill="none" xmlns="http://www.w3.org/2000/svg">
<path d="M0.0852051 9.1043L2.66413 6.37573C4.33571 6.10323 9.47726 5.48389 16.6708 5.18659L3.77296 5.66023L4.92208 4.51643C50.663 2.23201 99.6098 -1.89979 199.506 2.01688L200.626 5.59173C185.123 4.83742 171.005 3.3288 140.493 4.58702C156.331 4.73219 190.911 5.47745 202.53 7.29702L207.146 10.0554C204.707 9.68441 198.364 9.01013 192.51 9.28113L210.636 11.5556L215.309 13.9901C215.402 14.0268 215.458 14.0516 215.412 14.0441C162.212 5.31481 50.5035 6.72042 0.0852051 9.1043Z" fill="#00819D"/>
</svg>
