<svg width="38" height="27" viewBox="0 0 38 27" fill="none" xmlns="http://www.w3.org/2000/svg">
<path d="M1.46826 2.24737V1.00098H36.3672V25.9288H1.46826V14.7113" stroke="white" stroke-width="2" stroke-miterlimit="10" stroke-linecap="round" stroke-linejoin="round"/>
<path d="M7.70032 1.00098V5.98654" stroke="white" stroke-width="2" stroke-miterlimit="10" stroke-linejoin="round"/>
<path d="M7.70032 10.9724V25.9291" stroke="white" stroke-width="2" stroke-miterlimit="10" stroke-linejoin="round"/>
<path d="M7.70018 10.9721C9.0769 10.9721 10.193 9.85608 10.193 8.47935C10.193 7.10263 9.0769 5.98657 7.70018 5.98657C6.32345 5.98657 5.2074 7.10263 5.2074 8.47935C5.2074 9.85608 6.32345 10.9721 7.70018 10.9721Z" stroke="white" stroke-width="2" stroke-miterlimit="10" stroke-linejoin="round"/>
<path d="M10.1929 9.72574L13.932 10.9721V5.98657L10.1929 7.23296" stroke="white" stroke-width="2" stroke-miterlimit="10" stroke-linejoin="round"/>
<path d="M5.20743 9.72574L1.46826 10.9721V5.98657L5.20743 7.23296" stroke="white" stroke-width="2" stroke-miterlimit="10" stroke-linejoin="round"/>
<path d="M25.1497 5.98657V8.47935" stroke="white" stroke-width="2" stroke-miterlimit="10" stroke-linecap="round" stroke-linejoin="round"/>
<path d="M25.1497 18.4504V20.9432" stroke="white" stroke-width="2" stroke-miterlimit="10" stroke-linecap="round" stroke-linejoin="round"/>
<path d="M22.6569 18.4506H26.3961C27.7671 18.4506 28.8889 17.3289 28.8889 15.9578C28.8889 14.5868 27.7671 13.4651 26.3961 13.4651H23.9033C22.5323 13.4651 21.4105 12.3433 21.4105 10.9723C21.4105 9.60124 22.5323 8.47949 23.9033 8.47949H27.6425" stroke="white" stroke-width="2" stroke-miterlimit="10" stroke-linecap="round" stroke-linejoin="round"/>
</svg>
